<mxfile host="app.diagrams.net" modified="2021-12-22T09:11:23.509Z" agent="5.0 (X11; Linux x86_64) AppleWebKit/537.36 (KHTML, like Gecko) Chrome/96.0.4664.110 Safari/537.36" etag="LRwFwsDRDpTjrevcjR6B" version="16.0.0" type="github" pages="5">
  <diagram id="9VxAXfSb56YUdfD67Ixk" name="Page-1">
    <mxGraphModel dx="1248" dy="654" grid="1" gridSize="10" guides="1" tooltips="1" connect="1" arrows="1" fold="1" page="1" pageScale="1" pageWidth="827" pageHeight="1169" math="0" shadow="0">
      <root>
        <mxCell id="0" />
        <mxCell id="1" parent="0" />
        <mxCell id="FzGf9vucc3g5VFHMZguv-2" value="" style="rounded=0;whiteSpace=wrap;html=1;sketch=1;shadow=1;glass=0;" parent="1" vertex="1">
          <mxGeometry x="150" y="150" width="622" height="290" as="geometry" />
        </mxCell>
        <mxCell id="FzGf9vucc3g5VFHMZguv-3" value="&lt;font style=&quot;font-size: 21px&quot;&gt;Tomcat&amp;nbsp; &amp;nbsp;Server&lt;/font&gt;" style="text;html=1;strokeColor=none;fillColor=none;align=center;verticalAlign=middle;whiteSpace=wrap;rounded=0;shadow=1;glass=0;sketch=1;" parent="1" vertex="1">
          <mxGeometry x="384" y="150" width="176" height="40" as="geometry" />
        </mxCell>
        <mxCell id="FzGf9vucc3g5VFHMZguv-4" value="" style="rounded=0;whiteSpace=wrap;html=1;shadow=1;glass=0;sketch=1;" parent="1" vertex="1">
          <mxGeometry x="190" y="190" width="470" height="170" as="geometry" />
        </mxCell>
        <mxCell id="FzGf9vucc3g5VFHMZguv-5" value="" style="rounded=0;whiteSpace=wrap;html=1;shadow=1;glass=0;sketch=1;" parent="1" vertex="1">
          <mxGeometry x="204" y="210" width="476" height="165" as="geometry" />
        </mxCell>
        <mxCell id="FzGf9vucc3g5VFHMZguv-6" value="" style="rounded=0;whiteSpace=wrap;html=1;shadow=1;glass=0;sketch=1;" parent="1" vertex="1">
          <mxGeometry x="217.5" y="225" width="482.5" height="190" as="geometry" />
        </mxCell>
        <mxCell id="FzGf9vucc3g5VFHMZguv-7" value="" style="rounded=0;whiteSpace=wrap;html=1;shadow=1;glass=0;sketch=1;" parent="1" vertex="1">
          <mxGeometry x="264" y="265" width="120" height="60" as="geometry" />
        </mxCell>
        <mxCell id="FzGf9vucc3g5VFHMZguv-8" value="" style="rounded=0;whiteSpace=wrap;html=1;shadow=1;glass=0;sketch=1;" parent="1" vertex="1">
          <mxGeometry x="270" y="280" width="120" height="60" as="geometry" />
        </mxCell>
        <mxCell id="FzGf9vucc3g5VFHMZguv-9" value="连接器" style="rounded=0;whiteSpace=wrap;html=1;shadow=1;glass=0;sketch=1;" parent="1" vertex="1">
          <mxGeometry x="284" y="295" width="120" height="60" as="geometry" />
        </mxCell>
        <mxCell id="FzGf9vucc3g5VFHMZguv-10" value="容器" style="rounded=0;whiteSpace=wrap;html=1;shadow=1;glass=0;sketch=1;" parent="1" vertex="1">
          <mxGeometry x="540" y="290" width="120" height="60" as="geometry" />
        </mxCell>
        <mxCell id="FzGf9vucc3g5VFHMZguv-11" value="" style="endArrow=classic;html=1;rounded=0;exitX=1;exitY=0.25;exitDx=0;exitDy=0;entryX=-0.024;entryY=0.383;entryDx=0;entryDy=0;sketch=1;entryPerimeter=0;" parent="1" source="FzGf9vucc3g5VFHMZguv-9" target="FzGf9vucc3g5VFHMZguv-10" edge="1">
          <mxGeometry width="50" height="50" relative="1" as="geometry">
            <mxPoint x="390" y="360" as="sourcePoint" />
            <mxPoint x="440" y="310" as="targetPoint" />
          </mxGeometry>
        </mxCell>
        <mxCell id="FzGf9vucc3g5VFHMZguv-14" value="&lt;span style=&quot;color: rgb(51 , 51 , 51) ; font-family: &amp;#34;pingfang sc&amp;#34; , &amp;#34;avenir&amp;#34; , &amp;#34;tahoma&amp;#34; , &amp;#34;arial&amp;#34; , &amp;#34;lantinghei sc&amp;#34; , &amp;#34;microsoft yahei&amp;#34; , &amp;#34;hiragino sans gb&amp;#34; , &amp;#34;microsoft sans serif&amp;#34; , &amp;#34;wenquanyi micro hei&amp;#34; , &amp;#34;helvetica&amp;#34; , sans-serif&quot;&gt;&lt;font style=&quot;font-size: 14px&quot;&gt;ServletRequest&lt;/font&gt;&lt;/span&gt;" style="edgeLabel;html=1;align=center;verticalAlign=middle;resizable=0;points=[];fontSize=21;" parent="FzGf9vucc3g5VFHMZguv-11" vertex="1" connectable="0">
          <mxGeometry x="-0.2202" y="2" relative="1" as="geometry">
            <mxPoint x="12" as="offset" />
          </mxGeometry>
        </mxCell>
        <mxCell id="FzGf9vucc3g5VFHMZguv-12" value="" style="endArrow=classic;html=1;rounded=0;exitX=-0.001;exitY=0.883;exitDx=0;exitDy=0;exitPerimeter=0;sketch=1;entryX=1;entryY=0.75;entryDx=0;entryDy=0;" parent="1" source="FzGf9vucc3g5VFHMZguv-10" target="FzGf9vucc3g5VFHMZguv-9" edge="1">
          <mxGeometry width="50" height="50" relative="1" as="geometry">
            <mxPoint x="414" y="310" as="sourcePoint" />
            <mxPoint x="400" y="323" as="targetPoint" />
          </mxGeometry>
        </mxCell>
        <mxCell id="FzGf9vucc3g5VFHMZguv-15" value="&lt;span style=&quot;color: rgb(51 , 51 , 51) ; font-family: &amp;#34;pingfang sc&amp;#34; , &amp;#34;avenir&amp;#34; , &amp;#34;tahoma&amp;#34; , &amp;#34;arial&amp;#34; , &amp;#34;lantinghei sc&amp;#34; , &amp;#34;microsoft yahei&amp;#34; , &amp;#34;hiragino sans gb&amp;#34; , &amp;#34;microsoft sans serif&amp;#34; , &amp;#34;wenquanyi micro hei&amp;#34; , &amp;#34;helvetica&amp;#34; , sans-serif ; font-size: 15px&quot;&gt;ServletResponse&lt;/span&gt;" style="edgeLabel;html=1;align=center;verticalAlign=middle;resizable=0;points=[];fontSize=14;" parent="FzGf9vucc3g5VFHMZguv-12" vertex="1" connectable="0">
          <mxGeometry x="0.324" y="1" relative="1" as="geometry">
            <mxPoint x="23" as="offset" />
          </mxGeometry>
        </mxCell>
        <mxCell id="FzGf9vucc3g5VFHMZguv-18" value="" style="endArrow=classic;html=1;rounded=0;sketch=1;fontSize=14;entryX=0;entryY=0.25;entryDx=0;entryDy=0;" parent="1" target="FzGf9vucc3g5VFHMZguv-9" edge="1">
          <mxGeometry width="50" height="50" relative="1" as="geometry">
            <mxPoint x="70" y="310" as="sourcePoint" />
            <mxPoint x="60" y="210" as="targetPoint" />
          </mxGeometry>
        </mxCell>
        <mxCell id="FzGf9vucc3g5VFHMZguv-20" value="请求" style="edgeLabel;html=1;align=center;verticalAlign=middle;resizable=0;points=[];fontSize=14;" parent="FzGf9vucc3g5VFHMZguv-18" vertex="1" connectable="0">
          <mxGeometry x="-0.3704" y="-2" relative="1" as="geometry">
            <mxPoint as="offset" />
          </mxGeometry>
        </mxCell>
        <mxCell id="FzGf9vucc3g5VFHMZguv-19" value="" style="endArrow=classic;html=1;rounded=0;sketch=1;fontSize=14;exitX=0.112;exitY=1.02;exitDx=0;exitDy=0;exitPerimeter=0;" parent="1" source="FzGf9vucc3g5VFHMZguv-8" edge="1">
          <mxGeometry width="50" height="50" relative="1" as="geometry">
            <mxPoint x="60" y="390" as="sourcePoint" />
            <mxPoint x="60" y="340" as="targetPoint" />
          </mxGeometry>
        </mxCell>
        <mxCell id="FzGf9vucc3g5VFHMZguv-21" value="响应" style="edgeLabel;html=1;align=center;verticalAlign=middle;resizable=0;points=[];fontSize=14;" parent="FzGf9vucc3g5VFHMZguv-19" vertex="1" connectable="0">
          <mxGeometry x="0.4598" y="-3" relative="1" as="geometry">
            <mxPoint as="offset" />
          </mxGeometry>
        </mxCell>
        <mxCell id="FzGf9vucc3g5VFHMZguv-22" value="&lt;font style=&quot;font-size: 19px&quot;&gt;Service&lt;/font&gt;" style="text;html=1;strokeColor=none;fillColor=none;align=center;verticalAlign=middle;whiteSpace=wrap;rounded=0;shadow=1;glass=0;sketch=1;fontSize=14;" parent="1" vertex="1">
          <mxGeometry x="420" y="235" width="60" height="30" as="geometry" />
        </mxCell>
      </root>
    </mxGraphModel>
  </diagram>
  <diagram id="zyeDqOZow1XmqBmMqvXU" name="Page-2">
    <mxGraphModel dx="2295" dy="769" grid="1" gridSize="10" guides="1" tooltips="1" connect="1" arrows="1" fold="1" page="1" pageScale="1" pageWidth="827" pageHeight="1169" math="0" shadow="0">
      <root>
        <mxCell id="tsskpIIUrPpBVN9ATj_Y-0" />
        <mxCell id="tsskpIIUrPpBVN9ATj_Y-1" parent="tsskpIIUrPpBVN9ATj_Y-0" />
        <mxCell id="tsskpIIUrPpBVN9ATj_Y-2" value="&lt;span style=&quot;white-space: pre&quot;&gt;	&lt;/span&gt;&lt;span style=&quot;white-space: pre&quot;&gt;	&lt;/span&gt;&amp;nbsp; &amp;nbsp; &amp;nbsp; &amp;nbsp; &amp;nbsp; &amp;nbsp; &amp;nbsp; &amp;nbsp; &amp;nbsp; Tomcat Request" style="rounded=0;whiteSpace=wrap;html=1;shadow=1;glass=0;sketch=1;fontSize=14;" parent="tsskpIIUrPpBVN9ATj_Y-1" vertex="1">
          <mxGeometry x="50" y="140" width="610" height="260" as="geometry" />
        </mxCell>
        <mxCell id="tsskpIIUrPpBVN9ATj_Y-3" value="Socket" style="rounded=0;whiteSpace=wrap;html=1;shadow=1;glass=0;sketch=1;fontSize=14;" parent="tsskpIIUrPpBVN9ATj_Y-1" vertex="1">
          <mxGeometry x="70" y="190" width="300" height="170" as="geometry" />
        </mxCell>
        <mxCell id="tsskpIIUrPpBVN9ATj_Y-4" value="&lt;span style=&quot;color: rgb(51 , 51 , 51) ; font-family: &amp;#34;open sans&amp;#34; , &amp;#34;clear sans&amp;#34; , &amp;#34;helvetica neue&amp;#34; , &amp;#34;helvetica&amp;#34; , &amp;#34;arial&amp;#34; , &amp;#34;segoe ui emoji&amp;#34; , sans-serif ; font-size: 16px ; background-color: rgb(255 , 255 , 255)&quot;&gt;Adapter&lt;/span&gt;" style="rounded=0;whiteSpace=wrap;html=1;shadow=1;glass=0;sketch=1;fontSize=14;" parent="tsskpIIUrPpBVN9ATj_Y-1" vertex="1">
          <mxGeometry x="480" y="220" width="130" height="120" as="geometry" />
        </mxCell>
        <mxCell id="tsskpIIUrPpBVN9ATj_Y-5" value="&lt;h4 class=&quot;md-end-block md-heading md-focus&quot; style=&quot;box-sizing: border-box ; font-size: 1.25em ; margin-top: 1rem ; margin-bottom: 1rem ; position: relative ; line-height: 1.4 ; cursor: text ; color: rgb(51 , 51 , 51) ; font-family: &amp;#34;open sans&amp;#34; , &amp;#34;clear sans&amp;#34; , &amp;#34;helvetica neue&amp;#34; , &amp;#34;helvetica&amp;#34; , &amp;#34;arial&amp;#34; , &amp;#34;segoe ui emoji&amp;#34; , sans-serif&quot;&gt;&lt;span class=&quot;md-plain md-expand&quot; style=&quot;box-sizing: border-box&quot;&gt;Connector&lt;/span&gt;&lt;/h4&gt;" style="text;html=1;strokeColor=none;fillColor=none;align=center;verticalAlign=middle;whiteSpace=wrap;rounded=0;shadow=1;glass=0;sketch=1;fontSize=14;" parent="tsskpIIUrPpBVN9ATj_Y-1" vertex="1">
          <mxGeometry x="310" y="150" width="60" height="30" as="geometry" />
        </mxCell>
        <mxCell id="tsskpIIUrPpBVN9ATj_Y-6" value="EndPoint" style="rounded=0;whiteSpace=wrap;html=1;shadow=1;glass=0;sketch=1;fontSize=14;" parent="tsskpIIUrPpBVN9ATj_Y-1" vertex="1">
          <mxGeometry x="95" y="250" width="90" height="70" as="geometry" />
        </mxCell>
        <mxCell id="tsskpIIUrPpBVN9ATj_Y-7" value="&lt;span style=&quot;color: rgb(51 , 51 , 51) ; font-family: &amp;#34;open sans&amp;#34; , &amp;#34;clear sans&amp;#34; , &amp;#34;helvetica neue&amp;#34; , &amp;#34;helvetica&amp;#34; , &amp;#34;arial&amp;#34; , &amp;#34;segoe ui emoji&amp;#34; , sans-serif ; font-size: 16px ; background-color: rgb(255 , 255 , 255)&quot;&gt;Processor&lt;/span&gt;" style="rounded=0;whiteSpace=wrap;html=1;shadow=1;glass=0;sketch=1;fontSize=14;" parent="tsskpIIUrPpBVN9ATj_Y-1" vertex="1">
          <mxGeometry x="255" y="250" width="90" height="70" as="geometry" />
        </mxCell>
        <mxCell id="tsskpIIUrPpBVN9ATj_Y-8" value="TCP/IP" style="text;html=1;strokeColor=none;fillColor=none;align=center;verticalAlign=middle;whiteSpace=wrap;rounded=0;shadow=1;glass=0;sketch=1;fontSize=14;" parent="tsskpIIUrPpBVN9ATj_Y-1" vertex="1">
          <mxGeometry x="105" y="220" width="60" height="30" as="geometry" />
        </mxCell>
        <mxCell id="tsskpIIUrPpBVN9ATj_Y-10" value="&lt;span style=&quot;color: rgb(51 , 51 , 51) ; font-family: &amp;#34;open sans&amp;#34; , &amp;#34;clear sans&amp;#34; , &amp;#34;helvetica neue&amp;#34; , &amp;#34;helvetica&amp;#34; , &amp;#34;arial&amp;#34; , &amp;#34;segoe ui emoji&amp;#34; , sans-serif ; font-size: 16px ; background-color: rgb(255 , 255 , 255)&quot;&gt;ProtocolHandler&lt;/span&gt;" style="text;html=1;strokeColor=none;fillColor=none;align=center;verticalAlign=middle;whiteSpace=wrap;rounded=0;shadow=1;glass=0;sketch=1;fontSize=14;" parent="tsskpIIUrPpBVN9ATj_Y-1" vertex="1">
          <mxGeometry x="190" y="200" width="60" height="30" as="geometry" />
        </mxCell>
        <mxCell id="tsskpIIUrPpBVN9ATj_Y-11" value="HTTP/AJP" style="text;html=1;strokeColor=none;fillColor=none;align=center;verticalAlign=middle;whiteSpace=wrap;rounded=0;shadow=1;glass=0;sketch=1;fontSize=14;" parent="tsskpIIUrPpBVN9ATj_Y-1" vertex="1">
          <mxGeometry x="270" y="220" width="60" height="30" as="geometry" />
        </mxCell>
        <mxCell id="tsskpIIUrPpBVN9ATj_Y-16" value="" style="endArrow=classic;html=1;rounded=0;sketch=1;fontSize=14;" parent="tsskpIIUrPpBVN9ATj_Y-1" source="tsskpIIUrPpBVN9ATj_Y-6" edge="1">
          <mxGeometry width="50" height="50" relative="1" as="geometry">
            <mxPoint x="185" y="335" as="sourcePoint" />
            <mxPoint x="255.71067811865476" y="285" as="targetPoint" />
          </mxGeometry>
        </mxCell>
        <mxCell id="tsskpIIUrPpBVN9ATj_Y-18" value="" style="endArrow=classic;html=1;rounded=0;sketch=1;fontSize=14;entryX=0;entryY=0.5;entryDx=0;entryDy=0;exitX=1;exitY=0.5;exitDx=0;exitDy=0;" parent="tsskpIIUrPpBVN9ATj_Y-1" source="tsskpIIUrPpBVN9ATj_Y-7" target="tsskpIIUrPpBVN9ATj_Y-4" edge="1">
          <mxGeometry width="50" height="50" relative="1" as="geometry">
            <mxPoint x="350" y="310" as="sourcePoint" />
            <mxPoint x="400" y="260" as="targetPoint" />
          </mxGeometry>
        </mxCell>
        <mxCell id="tsskpIIUrPpBVN9ATj_Y-19" value="" style="endArrow=classic;html=1;rounded=0;sketch=1;fontSize=14;exitX=1;exitY=0.5;exitDx=0;exitDy=0;" parent="tsskpIIUrPpBVN9ATj_Y-1" source="tsskpIIUrPpBVN9ATj_Y-4" edge="1">
          <mxGeometry width="50" height="50" relative="1" as="geometry">
            <mxPoint x="620" y="310" as="sourcePoint" />
            <mxPoint x="780" y="280" as="targetPoint" />
          </mxGeometry>
        </mxCell>
        <mxCell id="tsskpIIUrPpBVN9ATj_Y-20" value="&lt;span style=&quot;color: rgb(51 , 51 , 51) ; font-family: &amp;#34;open sans&amp;#34; , &amp;#34;clear sans&amp;#34; , &amp;#34;helvetica neue&amp;#34; , &amp;#34;helvetica&amp;#34; , &amp;#34;arial&amp;#34; , &amp;#34;segoe ui emoji&amp;#34; , sans-serif ; font-size: 16px&quot;&gt;ServletRequest&lt;/span&gt;" style="edgeLabel;html=1;align=center;verticalAlign=middle;resizable=0;points=[];fontSize=14;" parent="tsskpIIUrPpBVN9ATj_Y-19" vertex="1" connectable="0">
          <mxGeometry x="-0.1603" y="-2" relative="1" as="geometry">
            <mxPoint x="6" y="-2" as="offset" />
          </mxGeometry>
        </mxCell>
        <mxCell id="tsskpIIUrPpBVN9ATj_Y-21" value="" style="endArrow=classic;html=1;rounded=0;sketch=1;fontSize=14;" parent="tsskpIIUrPpBVN9ATj_Y-1" edge="1">
          <mxGeometry width="50" height="50" relative="1" as="geometry">
            <mxPoint y="270" as="sourcePoint" />
            <mxPoint x="70" y="270" as="targetPoint" />
          </mxGeometry>
        </mxCell>
        <mxCell id="tsskpIIUrPpBVN9ATj_Y-23" value="" style="endArrow=classic;html=1;rounded=0;sketch=1;fontSize=14;exitX=-0.009;exitY=0.697;exitDx=0;exitDy=0;exitPerimeter=0;" parent="tsskpIIUrPpBVN9ATj_Y-1" source="tsskpIIUrPpBVN9ATj_Y-3" edge="1">
          <mxGeometry width="50" height="50" relative="1" as="geometry">
            <mxPoint y="340" as="sourcePoint" />
            <mxPoint y="308" as="targetPoint" />
          </mxGeometry>
        </mxCell>
        <mxCell id="tsskpIIUrPpBVN9ATj_Y-24" value="请求" style="text;html=1;align=center;verticalAlign=middle;resizable=0;points=[];autosize=1;strokeColor=none;fillColor=none;fontSize=14;" parent="tsskpIIUrPpBVN9ATj_Y-1" vertex="1">
          <mxGeometry x="5" y="250" width="50" height="20" as="geometry" />
        </mxCell>
        <mxCell id="tsskpIIUrPpBVN9ATj_Y-25" value="响应" style="text;html=1;align=center;verticalAlign=middle;resizable=0;points=[];autosize=1;strokeColor=none;fillColor=none;fontSize=14;" parent="tsskpIIUrPpBVN9ATj_Y-1" vertex="1">
          <mxGeometry x="7" y="290" width="50" height="20" as="geometry" />
        </mxCell>
      </root>
    </mxGraphModel>
  </diagram>
  <diagram id="6rxZ4m-IOtMNWe4BJCzY" name="Page-3">
    <mxGraphModel dx="1248" dy="654" grid="1" gridSize="10" guides="1" tooltips="1" connect="1" arrows="1" fold="1" page="1" pageScale="1" pageWidth="827" pageHeight="1169" math="0" shadow="0">
      <root>
        <mxCell id="2o7r53CpD5TIVnIO1ajt-0" />
        <mxCell id="2o7r53CpD5TIVnIO1ajt-1" parent="2o7r53CpD5TIVnIO1ajt-0" />
        <mxCell id="2o7r53CpD5TIVnIO1ajt-2" value="" style="rounded=0;whiteSpace=wrap;html=1;shadow=0;glass=0;sketch=1;fontSize=14;" parent="2o7r53CpD5TIVnIO1ajt-1" vertex="1">
          <mxGeometry x="140" y="90" width="610" height="420" as="geometry" />
        </mxCell>
        <mxCell id="2o7r53CpD5TIVnIO1ajt-3" value="&lt;b&gt;容器&lt;/b&gt;" style="text;html=1;strokeColor=none;fillColor=none;align=center;verticalAlign=middle;whiteSpace=wrap;rounded=0;shadow=1;glass=0;sketch=1;fontSize=14;" parent="2o7r53CpD5TIVnIO1ajt-1" vertex="1">
          <mxGeometry x="150" y="100" width="60" height="30" as="geometry" />
        </mxCell>
        <mxCell id="2o7r53CpD5TIVnIO1ajt-4" value="" style="rounded=0;whiteSpace=wrap;html=1;shadow=0;glass=0;sketch=1;fontSize=14;" parent="2o7r53CpD5TIVnIO1ajt-1" vertex="1">
          <mxGeometry x="180" y="150" width="550" height="340" as="geometry" />
        </mxCell>
        <mxCell id="2o7r53CpD5TIVnIO1ajt-5" value="&lt;b&gt;Engine&lt;/b&gt;" style="text;html=1;strokeColor=none;fillColor=none;align=center;verticalAlign=middle;whiteSpace=wrap;rounded=0;shadow=1;glass=0;sketch=1;fontSize=14;" parent="2o7r53CpD5TIVnIO1ajt-1" vertex="1">
          <mxGeometry x="200" y="158" width="60" height="30" as="geometry" />
        </mxCell>
        <mxCell id="2o7r53CpD5TIVnIO1ajt-6" value="" style="rounded=0;whiteSpace=wrap;html=1;shadow=0;glass=0;sketch=1;fontSize=14;" parent="2o7r53CpD5TIVnIO1ajt-1" vertex="1">
          <mxGeometry x="220" y="220" width="430" height="220" as="geometry" />
        </mxCell>
        <mxCell id="2o7r53CpD5TIVnIO1ajt-7" value="" style="rounded=0;whiteSpace=wrap;html=1;shadow=0;glass=0;sketch=1;fontSize=14;" parent="2o7r53CpD5TIVnIO1ajt-1" vertex="1">
          <mxGeometry x="230" y="230" width="450" height="230" as="geometry" />
        </mxCell>
        <mxCell id="2o7r53CpD5TIVnIO1ajt-8" value="&lt;b&gt;Host&lt;/b&gt;" style="text;html=1;strokeColor=none;fillColor=none;align=center;verticalAlign=middle;whiteSpace=wrap;rounded=0;shadow=1;glass=0;sketch=1;fontSize=14;" parent="2o7r53CpD5TIVnIO1ajt-1" vertex="1">
          <mxGeometry x="230" y="233" width="60" height="30" as="geometry" />
        </mxCell>
        <mxCell id="2o7r53CpD5TIVnIO1ajt-9" value="" style="rounded=0;whiteSpace=wrap;html=1;shadow=0;glass=0;sketch=1;fontSize=14;" parent="2o7r53CpD5TIVnIO1ajt-1" vertex="1">
          <mxGeometry x="250" y="280" width="370" height="130" as="geometry" />
        </mxCell>
        <mxCell id="2o7r53CpD5TIVnIO1ajt-10" value="" style="rounded=0;whiteSpace=wrap;html=1;shadow=0;glass=0;sketch=1;fontSize=14;" parent="2o7r53CpD5TIVnIO1ajt-1" vertex="1">
          <mxGeometry x="265" y="290" width="380" height="140" as="geometry" />
        </mxCell>
        <mxCell id="2o7r53CpD5TIVnIO1ajt-11" value="&lt;b&gt;Context&lt;/b&gt;" style="text;html=1;strokeColor=none;fillColor=none;align=center;verticalAlign=middle;whiteSpace=wrap;rounded=0;shadow=1;glass=0;sketch=1;fontSize=14;" parent="2o7r53CpD5TIVnIO1ajt-1" vertex="1">
          <mxGeometry x="276" y="292" width="60" height="30" as="geometry" />
        </mxCell>
        <mxCell id="2o7r53CpD5TIVnIO1ajt-12" value="" style="rounded=0;whiteSpace=wrap;html=1;shadow=0;glass=0;sketch=1;fontSize=14;" parent="2o7r53CpD5TIVnIO1ajt-1" vertex="1">
          <mxGeometry x="294" y="330" width="286" height="70" as="geometry" />
        </mxCell>
        <mxCell id="2o7r53CpD5TIVnIO1ajt-13" value="" style="rounded=0;whiteSpace=wrap;html=1;shadow=0;glass=0;sketch=1;fontSize=14;" parent="2o7r53CpD5TIVnIO1ajt-1" vertex="1">
          <mxGeometry x="312" y="340" width="286" height="70" as="geometry" />
        </mxCell>
        <mxCell id="2o7r53CpD5TIVnIO1ajt-14" value="&lt;b&gt;Wrapper&lt;/b&gt;" style="text;html=1;strokeColor=none;fillColor=none;align=center;verticalAlign=middle;whiteSpace=wrap;rounded=0;shadow=1;glass=0;sketch=1;fontSize=14;" parent="2o7r53CpD5TIVnIO1ajt-1" vertex="1">
          <mxGeometry x="320" y="344" width="60" height="30" as="geometry" />
        </mxCell>
        <mxCell id="2o7r53CpD5TIVnIO1ajt-15" value="Servlet" style="text;html=1;strokeColor=none;fillColor=none;align=center;verticalAlign=middle;whiteSpace=wrap;rounded=0;shadow=1;glass=0;sketch=1;fontSize=14;" parent="2o7r53CpD5TIVnIO1ajt-1" vertex="1">
          <mxGeometry x="460" y="370" width="60" height="30" as="geometry" />
        </mxCell>
      </root>
    </mxGraphModel>
  </diagram>
  <diagram id="bUAWxVmNciV8ZSuzUxm1" name="Page-4">
    <mxGraphModel dx="1248" dy="654" grid="1" gridSize="10" guides="1" tooltips="1" connect="1" arrows="1" fold="1" page="1" pageScale="1" pageWidth="827" pageHeight="1169" math="0" shadow="0">
      <root>
        <mxCell id="7G_qxeB5auAjUnHoluaL-0" />
        <mxCell id="7G_qxeB5auAjUnHoluaL-1" parent="7G_qxeB5auAjUnHoluaL-0" />
        <mxCell id="7G_qxeB5auAjUnHoluaL-2" value="" style="rounded=0;whiteSpace=wrap;html=1;shadow=0;glass=0;sketch=1;fontSize=14;" parent="7G_qxeB5auAjUnHoluaL-1" vertex="1">
          <mxGeometry x="144" y="40" width="726" height="710" as="geometry" />
        </mxCell>
        <mxCell id="7G_qxeB5auAjUnHoluaL-3" value="" style="rounded=0;whiteSpace=wrap;html=1;shadow=0;glass=0;sketch=1;fontSize=14;" parent="7G_qxeB5auAjUnHoluaL-1" vertex="1">
          <mxGeometry x="180" y="80" width="540" height="130" as="geometry" />
        </mxCell>
        <mxCell id="7G_qxeB5auAjUnHoluaL-8" value="" style="rounded=1;whiteSpace=wrap;html=1;shadow=0;glass=0;sketch=1;fontSize=14;" parent="7G_qxeB5auAjUnHoluaL-1" vertex="1">
          <mxGeometry x="210" y="115" width="480" height="85" as="geometry" />
        </mxCell>
        <mxCell id="7G_qxeB5auAjUnHoluaL-9" value="&lt;span style=&quot;color: rgb(51 , 51 , 51) ; font-family: &amp;#34;open sans&amp;#34; , &amp;#34;clear sans&amp;#34; , &amp;#34;helvetica neue&amp;#34; , &amp;#34;helvetica&amp;#34; , &amp;#34;arial&amp;#34; , &amp;#34;segoe ui emoji&amp;#34; , sans-serif ; font-size: 16px ; background-color: rgb(255 , 255 , 255)&quot;&gt;Pipeline&lt;/span&gt;" style="text;html=1;strokeColor=none;fillColor=none;align=center;verticalAlign=middle;whiteSpace=wrap;rounded=0;shadow=0;glass=0;sketch=1;fontSize=14;" parent="7G_qxeB5auAjUnHoluaL-1" vertex="1">
          <mxGeometry x="414" y="120" width="60" height="30" as="geometry" />
        </mxCell>
        <mxCell id="7G_qxeB5auAjUnHoluaL-12" style="edgeStyle=orthogonalEdgeStyle;rounded=0;sketch=1;orthogonalLoop=1;jettySize=auto;html=1;exitX=1;exitY=0.5;exitDx=0;exitDy=0;fontSize=14;" parent="7G_qxeB5auAjUnHoluaL-1" source="7G_qxeB5auAjUnHoluaL-10" target="7G_qxeB5auAjUnHoluaL-11" edge="1">
          <mxGeometry relative="1" as="geometry" />
        </mxCell>
        <mxCell id="7G_qxeB5auAjUnHoluaL-10" value="" style="rounded=0;whiteSpace=wrap;html=1;shadow=0;glass=0;sketch=1;fontSize=14;" parent="7G_qxeB5auAjUnHoluaL-1" vertex="1">
          <mxGeometry x="240" y="150" width="60" height="40" as="geometry" />
        </mxCell>
        <mxCell id="7G_qxeB5auAjUnHoluaL-15" value="" style="edgeStyle=orthogonalEdgeStyle;rounded=0;sketch=1;orthogonalLoop=1;jettySize=auto;html=1;fontSize=14;" parent="7G_qxeB5auAjUnHoluaL-1" source="7G_qxeB5auAjUnHoluaL-11" target="7G_qxeB5auAjUnHoluaL-14" edge="1">
          <mxGeometry relative="1" as="geometry" />
        </mxCell>
        <mxCell id="7G_qxeB5auAjUnHoluaL-11" value="" style="rounded=0;whiteSpace=wrap;html=1;shadow=0;glass=0;sketch=1;fontSize=14;" parent="7G_qxeB5auAjUnHoluaL-1" vertex="1">
          <mxGeometry x="330" y="150" width="60" height="40" as="geometry" />
        </mxCell>
        <mxCell id="7G_qxeB5auAjUnHoluaL-17" value="" style="edgeStyle=orthogonalEdgeStyle;rounded=0;sketch=1;orthogonalLoop=1;jettySize=auto;html=1;fontSize=14;" parent="7G_qxeB5auAjUnHoluaL-1" source="7G_qxeB5auAjUnHoluaL-14" target="7G_qxeB5auAjUnHoluaL-16" edge="1">
          <mxGeometry relative="1" as="geometry" />
        </mxCell>
        <mxCell id="7G_qxeB5auAjUnHoluaL-14" value="" style="rounded=0;whiteSpace=wrap;html=1;shadow=0;glass=0;sketch=1;fontSize=14;" parent="7G_qxeB5auAjUnHoluaL-1" vertex="1">
          <mxGeometry x="414" y="150" width="60" height="40" as="geometry" />
        </mxCell>
        <mxCell id="7G_qxeB5auAjUnHoluaL-19" value="" style="edgeStyle=orthogonalEdgeStyle;rounded=0;sketch=1;orthogonalLoop=1;jettySize=auto;html=1;fontSize=14;" parent="7G_qxeB5auAjUnHoluaL-1" source="7G_qxeB5auAjUnHoluaL-16" target="7G_qxeB5auAjUnHoluaL-18" edge="1">
          <mxGeometry relative="1" as="geometry" />
        </mxCell>
        <mxCell id="7G_qxeB5auAjUnHoluaL-16" value="" style="rounded=0;whiteSpace=wrap;html=1;shadow=0;glass=0;sketch=1;fontSize=14;" parent="7G_qxeB5auAjUnHoluaL-1" vertex="1">
          <mxGeometry x="510" y="150" width="60" height="40" as="geometry" />
        </mxCell>
        <mxCell id="7G_qxeB5auAjUnHoluaL-18" value="Base" style="rounded=0;whiteSpace=wrap;html=1;shadow=0;glass=0;sketch=1;fontSize=14;" parent="7G_qxeB5auAjUnHoluaL-1" vertex="1">
          <mxGeometry x="610" y="150" width="60" height="40" as="geometry" />
        </mxCell>
        <mxCell id="7G_qxeB5auAjUnHoluaL-27" value="" style="rounded=0;whiteSpace=wrap;html=1;shadow=0;glass=0;sketch=1;fontSize=14;" parent="7G_qxeB5auAjUnHoluaL-1" vertex="1">
          <mxGeometry x="180" y="240" width="540" height="130" as="geometry" />
        </mxCell>
        <mxCell id="7G_qxeB5auAjUnHoluaL-28" value="" style="rounded=1;whiteSpace=wrap;html=1;shadow=0;glass=0;sketch=1;fontSize=14;" parent="7G_qxeB5auAjUnHoluaL-1" vertex="1">
          <mxGeometry x="210" y="275" width="480" height="85" as="geometry" />
        </mxCell>
        <mxCell id="7G_qxeB5auAjUnHoluaL-29" value="&lt;span style=&quot;color: rgb(51 , 51 , 51) ; font-family: &amp;#34;open sans&amp;#34; , &amp;#34;clear sans&amp;#34; , &amp;#34;helvetica neue&amp;#34; , &amp;#34;helvetica&amp;#34; , &amp;#34;arial&amp;#34; , &amp;#34;segoe ui emoji&amp;#34; , sans-serif ; font-size: 16px ; background-color: rgb(255 , 255 , 255)&quot;&gt;Pipeline&lt;/span&gt;" style="text;html=1;strokeColor=none;fillColor=none;align=center;verticalAlign=middle;whiteSpace=wrap;rounded=0;shadow=0;glass=0;sketch=1;fontSize=14;" parent="7G_qxeB5auAjUnHoluaL-1" vertex="1">
          <mxGeometry x="414" y="280" width="60" height="30" as="geometry" />
        </mxCell>
        <mxCell id="7G_qxeB5auAjUnHoluaL-30" style="edgeStyle=orthogonalEdgeStyle;rounded=0;sketch=1;orthogonalLoop=1;jettySize=auto;html=1;exitX=1;exitY=0.5;exitDx=0;exitDy=0;fontSize=14;" parent="7G_qxeB5auAjUnHoluaL-1" source="7G_qxeB5auAjUnHoluaL-31" target="7G_qxeB5auAjUnHoluaL-33" edge="1">
          <mxGeometry relative="1" as="geometry" />
        </mxCell>
        <mxCell id="7G_qxeB5auAjUnHoluaL-31" value="" style="rounded=0;whiteSpace=wrap;html=1;shadow=0;glass=0;sketch=1;fontSize=14;" parent="7G_qxeB5auAjUnHoluaL-1" vertex="1">
          <mxGeometry x="240" y="310" width="60" height="40" as="geometry" />
        </mxCell>
        <mxCell id="7G_qxeB5auAjUnHoluaL-32" value="" style="edgeStyle=orthogonalEdgeStyle;rounded=0;sketch=1;orthogonalLoop=1;jettySize=auto;html=1;fontSize=14;" parent="7G_qxeB5auAjUnHoluaL-1" source="7G_qxeB5auAjUnHoluaL-33" target="7G_qxeB5auAjUnHoluaL-35" edge="1">
          <mxGeometry relative="1" as="geometry" />
        </mxCell>
        <mxCell id="7G_qxeB5auAjUnHoluaL-33" value="" style="rounded=0;whiteSpace=wrap;html=1;shadow=0;glass=0;sketch=1;fontSize=14;" parent="7G_qxeB5auAjUnHoluaL-1" vertex="1">
          <mxGeometry x="330" y="310" width="60" height="40" as="geometry" />
        </mxCell>
        <mxCell id="7G_qxeB5auAjUnHoluaL-34" value="" style="edgeStyle=orthogonalEdgeStyle;rounded=0;sketch=1;orthogonalLoop=1;jettySize=auto;html=1;fontSize=14;" parent="7G_qxeB5auAjUnHoluaL-1" source="7G_qxeB5auAjUnHoluaL-35" target="7G_qxeB5auAjUnHoluaL-37" edge="1">
          <mxGeometry relative="1" as="geometry" />
        </mxCell>
        <mxCell id="7G_qxeB5auAjUnHoluaL-35" value="" style="rounded=0;whiteSpace=wrap;html=1;shadow=0;glass=0;sketch=1;fontSize=14;" parent="7G_qxeB5auAjUnHoluaL-1" vertex="1">
          <mxGeometry x="414" y="310" width="60" height="40" as="geometry" />
        </mxCell>
        <mxCell id="7G_qxeB5auAjUnHoluaL-36" value="" style="edgeStyle=orthogonalEdgeStyle;rounded=0;sketch=1;orthogonalLoop=1;jettySize=auto;html=1;fontSize=14;" parent="7G_qxeB5auAjUnHoluaL-1" source="7G_qxeB5auAjUnHoluaL-37" target="7G_qxeB5auAjUnHoluaL-38" edge="1">
          <mxGeometry relative="1" as="geometry" />
        </mxCell>
        <mxCell id="7G_qxeB5auAjUnHoluaL-37" value="" style="rounded=0;whiteSpace=wrap;html=1;shadow=0;glass=0;sketch=1;fontSize=14;" parent="7G_qxeB5auAjUnHoluaL-1" vertex="1">
          <mxGeometry x="510" y="310" width="60" height="40" as="geometry" />
        </mxCell>
        <mxCell id="7G_qxeB5auAjUnHoluaL-38" value="Base" style="rounded=0;whiteSpace=wrap;html=1;shadow=0;glass=0;sketch=1;fontSize=14;" parent="7G_qxeB5auAjUnHoluaL-1" vertex="1">
          <mxGeometry x="610" y="310" width="60" height="40" as="geometry" />
        </mxCell>
        <mxCell id="7G_qxeB5auAjUnHoluaL-39" value="" style="rounded=0;whiteSpace=wrap;html=1;shadow=0;glass=0;sketch=1;fontSize=14;" parent="7G_qxeB5auAjUnHoluaL-1" vertex="1">
          <mxGeometry x="180" y="400" width="540" height="130" as="geometry" />
        </mxCell>
        <mxCell id="7G_qxeB5auAjUnHoluaL-40" value="" style="rounded=1;whiteSpace=wrap;html=1;shadow=0;glass=0;sketch=1;fontSize=14;" parent="7G_qxeB5auAjUnHoluaL-1" vertex="1">
          <mxGeometry x="210" y="435" width="480" height="85" as="geometry" />
        </mxCell>
        <mxCell id="7G_qxeB5auAjUnHoluaL-41" value="&lt;span style=&quot;color: rgb(51 , 51 , 51) ; font-family: &amp;#34;open sans&amp;#34; , &amp;#34;clear sans&amp;#34; , &amp;#34;helvetica neue&amp;#34; , &amp;#34;helvetica&amp;#34; , &amp;#34;arial&amp;#34; , &amp;#34;segoe ui emoji&amp;#34; , sans-serif ; font-size: 16px ; background-color: rgb(255 , 255 , 255)&quot;&gt;Pipeline&lt;/span&gt;" style="text;html=1;strokeColor=none;fillColor=none;align=center;verticalAlign=middle;whiteSpace=wrap;rounded=0;shadow=0;glass=0;sketch=1;fontSize=14;" parent="7G_qxeB5auAjUnHoluaL-1" vertex="1">
          <mxGeometry x="414" y="440" width="60" height="30" as="geometry" />
        </mxCell>
        <mxCell id="7G_qxeB5auAjUnHoluaL-42" style="edgeStyle=orthogonalEdgeStyle;rounded=0;sketch=1;orthogonalLoop=1;jettySize=auto;html=1;exitX=1;exitY=0.5;exitDx=0;exitDy=0;fontSize=14;" parent="7G_qxeB5auAjUnHoluaL-1" source="7G_qxeB5auAjUnHoluaL-43" target="7G_qxeB5auAjUnHoluaL-45" edge="1">
          <mxGeometry relative="1" as="geometry" />
        </mxCell>
        <mxCell id="7G_qxeB5auAjUnHoluaL-43" value="" style="rounded=0;whiteSpace=wrap;html=1;shadow=0;glass=0;sketch=1;fontSize=14;" parent="7G_qxeB5auAjUnHoluaL-1" vertex="1">
          <mxGeometry x="240" y="470" width="60" height="40" as="geometry" />
        </mxCell>
        <mxCell id="7G_qxeB5auAjUnHoluaL-44" value="" style="edgeStyle=orthogonalEdgeStyle;rounded=0;sketch=1;orthogonalLoop=1;jettySize=auto;html=1;fontSize=14;" parent="7G_qxeB5auAjUnHoluaL-1" source="7G_qxeB5auAjUnHoluaL-45" target="7G_qxeB5auAjUnHoluaL-47" edge="1">
          <mxGeometry relative="1" as="geometry" />
        </mxCell>
        <mxCell id="7G_qxeB5auAjUnHoluaL-45" value="" style="rounded=0;whiteSpace=wrap;html=1;shadow=0;glass=0;sketch=1;fontSize=14;" parent="7G_qxeB5auAjUnHoluaL-1" vertex="1">
          <mxGeometry x="330" y="470" width="60" height="40" as="geometry" />
        </mxCell>
        <mxCell id="7G_qxeB5auAjUnHoluaL-46" value="" style="edgeStyle=orthogonalEdgeStyle;rounded=0;sketch=1;orthogonalLoop=1;jettySize=auto;html=1;fontSize=14;" parent="7G_qxeB5auAjUnHoluaL-1" source="7G_qxeB5auAjUnHoluaL-47" target="7G_qxeB5auAjUnHoluaL-49" edge="1">
          <mxGeometry relative="1" as="geometry" />
        </mxCell>
        <mxCell id="7G_qxeB5auAjUnHoluaL-47" value="" style="rounded=0;whiteSpace=wrap;html=1;shadow=0;glass=0;sketch=1;fontSize=14;" parent="7G_qxeB5auAjUnHoluaL-1" vertex="1">
          <mxGeometry x="414" y="470" width="60" height="40" as="geometry" />
        </mxCell>
        <mxCell id="7G_qxeB5auAjUnHoluaL-48" value="" style="edgeStyle=orthogonalEdgeStyle;rounded=0;sketch=1;orthogonalLoop=1;jettySize=auto;html=1;fontSize=14;" parent="7G_qxeB5auAjUnHoluaL-1" source="7G_qxeB5auAjUnHoluaL-49" target="7G_qxeB5auAjUnHoluaL-50" edge="1">
          <mxGeometry relative="1" as="geometry" />
        </mxCell>
        <mxCell id="7G_qxeB5auAjUnHoluaL-49" value="" style="rounded=0;whiteSpace=wrap;html=1;shadow=0;glass=0;sketch=1;fontSize=14;" parent="7G_qxeB5auAjUnHoluaL-1" vertex="1">
          <mxGeometry x="510" y="470" width="60" height="40" as="geometry" />
        </mxCell>
        <mxCell id="7G_qxeB5auAjUnHoluaL-50" value="Base" style="rounded=0;whiteSpace=wrap;html=1;shadow=0;glass=0;sketch=1;fontSize=14;" parent="7G_qxeB5auAjUnHoluaL-1" vertex="1">
          <mxGeometry x="610" y="470" width="60" height="40" as="geometry" />
        </mxCell>
        <mxCell id="7G_qxeB5auAjUnHoluaL-51" value="" style="rounded=0;whiteSpace=wrap;html=1;shadow=0;glass=0;sketch=1;fontSize=14;" parent="7G_qxeB5auAjUnHoluaL-1" vertex="1">
          <mxGeometry x="180" y="560" width="540" height="130" as="geometry" />
        </mxCell>
        <mxCell id="7G_qxeB5auAjUnHoluaL-52" value="" style="rounded=1;whiteSpace=wrap;html=1;shadow=0;glass=0;sketch=1;fontSize=14;" parent="7G_qxeB5auAjUnHoluaL-1" vertex="1">
          <mxGeometry x="210" y="595" width="480" height="85" as="geometry" />
        </mxCell>
        <mxCell id="7G_qxeB5auAjUnHoluaL-53" value="&lt;span style=&quot;color: rgb(51 , 51 , 51) ; font-family: &amp;#34;open sans&amp;#34; , &amp;#34;clear sans&amp;#34; , &amp;#34;helvetica neue&amp;#34; , &amp;#34;helvetica&amp;#34; , &amp;#34;arial&amp;#34; , &amp;#34;segoe ui emoji&amp;#34; , sans-serif ; font-size: 16px ; background-color: rgb(255 , 255 , 255)&quot;&gt;Pipeline&lt;/span&gt;" style="text;html=1;strokeColor=none;fillColor=none;align=center;verticalAlign=middle;whiteSpace=wrap;rounded=0;shadow=0;glass=0;sketch=1;fontSize=14;" parent="7G_qxeB5auAjUnHoluaL-1" vertex="1">
          <mxGeometry x="414" y="600" width="60" height="30" as="geometry" />
        </mxCell>
        <mxCell id="7G_qxeB5auAjUnHoluaL-54" style="edgeStyle=orthogonalEdgeStyle;rounded=0;sketch=1;orthogonalLoop=1;jettySize=auto;html=1;exitX=1;exitY=0.5;exitDx=0;exitDy=0;fontSize=14;" parent="7G_qxeB5auAjUnHoluaL-1" source="7G_qxeB5auAjUnHoluaL-55" target="7G_qxeB5auAjUnHoluaL-57" edge="1">
          <mxGeometry relative="1" as="geometry" />
        </mxCell>
        <mxCell id="7G_qxeB5auAjUnHoluaL-55" value="" style="rounded=0;whiteSpace=wrap;html=1;shadow=0;glass=0;sketch=1;fontSize=14;" parent="7G_qxeB5auAjUnHoluaL-1" vertex="1">
          <mxGeometry x="240" y="630" width="60" height="40" as="geometry" />
        </mxCell>
        <mxCell id="7G_qxeB5auAjUnHoluaL-56" value="" style="edgeStyle=orthogonalEdgeStyle;rounded=0;sketch=1;orthogonalLoop=1;jettySize=auto;html=1;fontSize=14;" parent="7G_qxeB5auAjUnHoluaL-1" source="7G_qxeB5auAjUnHoluaL-57" target="7G_qxeB5auAjUnHoluaL-59" edge="1">
          <mxGeometry relative="1" as="geometry" />
        </mxCell>
        <mxCell id="7G_qxeB5auAjUnHoluaL-57" value="" style="rounded=0;whiteSpace=wrap;html=1;shadow=0;glass=0;sketch=1;fontSize=14;" parent="7G_qxeB5auAjUnHoluaL-1" vertex="1">
          <mxGeometry x="330" y="630" width="60" height="40" as="geometry" />
        </mxCell>
        <mxCell id="7G_qxeB5auAjUnHoluaL-58" value="" style="edgeStyle=orthogonalEdgeStyle;rounded=0;sketch=1;orthogonalLoop=1;jettySize=auto;html=1;fontSize=14;" parent="7G_qxeB5auAjUnHoluaL-1" source="7G_qxeB5auAjUnHoluaL-59" target="7G_qxeB5auAjUnHoluaL-61" edge="1">
          <mxGeometry relative="1" as="geometry" />
        </mxCell>
        <mxCell id="7G_qxeB5auAjUnHoluaL-59" value="" style="rounded=0;whiteSpace=wrap;html=1;shadow=0;glass=0;sketch=1;fontSize=14;" parent="7G_qxeB5auAjUnHoluaL-1" vertex="1">
          <mxGeometry x="414" y="630" width="60" height="40" as="geometry" />
        </mxCell>
        <mxCell id="7G_qxeB5auAjUnHoluaL-60" value="" style="edgeStyle=orthogonalEdgeStyle;rounded=0;sketch=1;orthogonalLoop=1;jettySize=auto;html=1;fontSize=14;" parent="7G_qxeB5auAjUnHoluaL-1" source="7G_qxeB5auAjUnHoluaL-61" target="7G_qxeB5auAjUnHoluaL-62" edge="1">
          <mxGeometry relative="1" as="geometry" />
        </mxCell>
        <mxCell id="7G_qxeB5auAjUnHoluaL-61" value="" style="rounded=0;whiteSpace=wrap;html=1;shadow=0;glass=0;sketch=1;fontSize=14;" parent="7G_qxeB5auAjUnHoluaL-1" vertex="1">
          <mxGeometry x="510" y="630" width="60" height="40" as="geometry" />
        </mxCell>
        <mxCell id="7G_qxeB5auAjUnHoluaL-62" value="Base" style="rounded=0;whiteSpace=wrap;html=1;shadow=0;glass=0;sketch=1;fontSize=14;" parent="7G_qxeB5auAjUnHoluaL-1" vertex="1">
          <mxGeometry x="610" y="630" width="60" height="40" as="geometry" />
        </mxCell>
        <mxCell id="7G_qxeB5auAjUnHoluaL-63" style="edgeStyle=orthogonalEdgeStyle;rounded=0;sketch=1;orthogonalLoop=1;jettySize=auto;html=1;exitX=0.5;exitY=1;exitDx=0;exitDy=0;fontSize=14;" parent="7G_qxeB5auAjUnHoluaL-1" source="7G_qxeB5auAjUnHoluaL-2" target="7G_qxeB5auAjUnHoluaL-2" edge="1">
          <mxGeometry relative="1" as="geometry" />
        </mxCell>
        <mxCell id="7G_qxeB5auAjUnHoluaL-66" value="&lt;b&gt;Engine&lt;/b&gt;" style="text;html=1;strokeColor=none;fillColor=none;align=center;verticalAlign=middle;whiteSpace=wrap;rounded=0;shadow=0;glass=0;sketch=1;fontSize=14;" parent="7G_qxeB5auAjUnHoluaL-1" vertex="1">
          <mxGeometry x="190" y="85" width="60" height="30" as="geometry" />
        </mxCell>
        <mxCell id="7G_qxeB5auAjUnHoluaL-67" value="&lt;b&gt;Host&lt;/b&gt;" style="text;html=1;strokeColor=none;fillColor=none;align=center;verticalAlign=middle;whiteSpace=wrap;rounded=0;shadow=0;glass=0;sketch=1;fontSize=14;" parent="7G_qxeB5auAjUnHoluaL-1" vertex="1">
          <mxGeometry x="190" y="245" width="60" height="30" as="geometry" />
        </mxCell>
        <mxCell id="7G_qxeB5auAjUnHoluaL-68" value="&lt;b&gt;Context&lt;/b&gt;" style="text;html=1;strokeColor=none;fillColor=none;align=center;verticalAlign=middle;whiteSpace=wrap;rounded=0;shadow=0;glass=0;sketch=1;fontSize=14;" parent="7G_qxeB5auAjUnHoluaL-1" vertex="1">
          <mxGeometry x="190" y="405" width="60" height="30" as="geometry" />
        </mxCell>
        <mxCell id="7G_qxeB5auAjUnHoluaL-69" value="&lt;b&gt;Wrapper&lt;/b&gt;" style="text;html=1;strokeColor=none;fillColor=none;align=center;verticalAlign=middle;whiteSpace=wrap;rounded=0;shadow=0;glass=0;sketch=1;fontSize=14;" parent="7G_qxeB5auAjUnHoluaL-1" vertex="1">
          <mxGeometry x="190" y="565" width="60" height="30" as="geometry" />
        </mxCell>
        <mxCell id="7G_qxeB5auAjUnHoluaL-70" value="" style="endArrow=classic;html=1;rounded=0;sketch=1;fontSize=14;entryX=0.376;entryY=-0.039;entryDx=0;entryDy=0;entryPerimeter=0;exitX=0.5;exitY=1;exitDx=0;exitDy=0;" parent="7G_qxeB5auAjUnHoluaL-1" source="7G_qxeB5auAjUnHoluaL-18" target="7G_qxeB5auAjUnHoluaL-31" edge="1">
          <mxGeometry width="50" height="50" relative="1" as="geometry">
            <mxPoint x="640" y="220" as="sourcePoint" />
            <mxPoint x="690" y="170" as="targetPoint" />
          </mxGeometry>
        </mxCell>
        <mxCell id="7G_qxeB5auAjUnHoluaL-71" value="" style="endArrow=classic;html=1;rounded=0;sketch=1;fontSize=14;entryX=0.376;entryY=-0.039;entryDx=0;entryDy=0;entryPerimeter=0;exitX=0.5;exitY=1;exitDx=0;exitDy=0;" parent="7G_qxeB5auAjUnHoluaL-1" edge="1">
          <mxGeometry width="50" height="50" relative="1" as="geometry">
            <mxPoint x="637.44" y="351.56" as="sourcePoint" />
            <mxPoint x="259.99999999999994" y="470.00000000000006" as="targetPoint" />
          </mxGeometry>
        </mxCell>
        <mxCell id="7G_qxeB5auAjUnHoluaL-72" value="" style="endArrow=classic;html=1;rounded=0;sketch=1;fontSize=14;entryX=0.376;entryY=-0.039;entryDx=0;entryDy=0;entryPerimeter=0;exitX=0.5;exitY=1;exitDx=0;exitDy=0;" parent="7G_qxeB5auAjUnHoluaL-1" edge="1">
          <mxGeometry width="50" height="50" relative="1" as="geometry">
            <mxPoint x="647.44" y="509.99999999999994" as="sourcePoint" />
            <mxPoint x="270" y="628.44" as="targetPoint" />
          </mxGeometry>
        </mxCell>
        <mxCell id="7G_qxeB5auAjUnHoluaL-74" value="" style="endArrow=classic;html=1;rounded=0;sketch=1;fontSize=14;exitX=1.043;exitY=0.423;exitDx=0;exitDy=0;exitPerimeter=0;" parent="7G_qxeB5auAjUnHoluaL-1" source="7G_qxeB5auAjUnHoluaL-75" target="7G_qxeB5auAjUnHoluaL-10" edge="1">
          <mxGeometry width="50" height="50" relative="1" as="geometry">
            <mxPoint x="60" y="170" as="sourcePoint" />
            <mxPoint x="70" y="150" as="targetPoint" />
          </mxGeometry>
        </mxCell>
        <mxCell id="7G_qxeB5auAjUnHoluaL-75" value="&lt;b&gt;&lt;font style=&quot;font-size: 22px&quot;&gt;连接器&lt;/font&gt;&lt;/b&gt;" style="text;html=1;align=center;verticalAlign=middle;resizable=0;points=[];autosize=1;strokeColor=none;fillColor=none;fontSize=14;" parent="7G_qxeB5auAjUnHoluaL-1" vertex="1">
          <mxGeometry x="10" y="160" width="80" height="20" as="geometry" />
        </mxCell>
        <mxCell id="7G_qxeB5auAjUnHoluaL-76" value="Servlet" style="rounded=0;whiteSpace=wrap;html=1;shadow=0;glass=0;sketch=1;fontSize=22;" parent="7G_qxeB5auAjUnHoluaL-1" vertex="1">
          <mxGeometry x="740" y="620" width="100" height="60" as="geometry" />
        </mxCell>
        <mxCell id="7G_qxeB5auAjUnHoluaL-77" value="" style="endArrow=classic;html=1;rounded=0;sketch=1;fontSize=22;entryX=0.016;entryY=0.383;entryDx=0;entryDy=0;exitX=1.007;exitY=0.597;exitDx=0;exitDy=0;exitPerimeter=0;entryPerimeter=0;" parent="7G_qxeB5auAjUnHoluaL-1" source="7G_qxeB5auAjUnHoluaL-52" target="7G_qxeB5auAjUnHoluaL-76" edge="1">
          <mxGeometry width="50" height="50" relative="1" as="geometry">
            <mxPoint x="690" y="680" as="sourcePoint" />
            <mxPoint x="740" y="630" as="targetPoint" />
          </mxGeometry>
        </mxCell>
      </root>
    </mxGraphModel>
  </diagram>
  <diagram id="eFrgAHPwqcSmMVmwc5NF" name="Page-5">
    <mxGraphModel dx="1248" dy="654" grid="1" gridSize="10" guides="1" tooltips="1" connect="1" arrows="1" fold="1" page="1" pageScale="1" pageWidth="827" pageHeight="1169" math="0" shadow="0">
      <root>
        <mxCell id="8W7PXN7QodkAZlV8HIW6-0" />
        <mxCell id="8W7PXN7QodkAZlV8HIW6-1" parent="8W7PXN7QodkAZlV8HIW6-0" />
        <mxCell id="8W7PXN7QodkAZlV8HIW6-2" value="&lt;font style=&quot;font-size: 19px&quot;&gt;Server&lt;/font&gt;" style="html=1;rounded=0;shadow=0;glass=0;sketch=1;fontSize=22;" vertex="1" parent="8W7PXN7QodkAZlV8HIW6-1">
          <mxGeometry x="460" y="70" width="230" height="50" as="geometry" />
        </mxCell>
        <mxCell id="8W7PXN7QodkAZlV8HIW6-21" style="edgeStyle=orthogonalEdgeStyle;rounded=0;sketch=0;orthogonalLoop=1;jettySize=auto;html=1;exitX=0.5;exitY=0;exitDx=0;exitDy=0;entryX=0.5;entryY=1;entryDx=0;entryDy=0;fontSize=19;endArrow=none;endFill=0;startArrow=none;startFill=0;" edge="1" parent="8W7PXN7QodkAZlV8HIW6-1" source="8W7PXN7QodkAZlV8HIW6-3" target="8W7PXN7QodkAZlV8HIW6-2">
          <mxGeometry relative="1" as="geometry" />
        </mxCell>
        <mxCell id="8W7PXN7QodkAZlV8HIW6-3" value="&lt;font style=&quot;font-size: 19px&quot;&gt;Service&lt;/font&gt;" style="html=1;rounded=0;shadow=0;glass=0;sketch=1;fontSize=22;" vertex="1" parent="8W7PXN7QodkAZlV8HIW6-1">
          <mxGeometry x="460" y="180" width="230" height="50" as="geometry" />
        </mxCell>
        <mxCell id="8W7PXN7QodkAZlV8HIW6-4" value="" style="rounded=0;whiteSpace=wrap;html=1;shadow=0;glass=0;sketch=1;fontSize=22;" vertex="1" parent="8W7PXN7QodkAZlV8HIW6-1">
          <mxGeometry x="20" y="300" width="470" height="380" as="geometry" />
        </mxCell>
        <mxCell id="8W7PXN7QodkAZlV8HIW6-27" style="edgeStyle=none;rounded=0;sketch=0;orthogonalLoop=1;jettySize=auto;html=1;exitX=0.5;exitY=0;exitDx=0;exitDy=0;entryX=0.5;entryY=1;entryDx=0;entryDy=0;fontSize=14;startArrow=none;startFill=0;endArrow=none;endFill=0;" edge="1" parent="8W7PXN7QodkAZlV8HIW6-1" source="8W7PXN7QodkAZlV8HIW6-6" target="8W7PXN7QodkAZlV8HIW6-9">
          <mxGeometry relative="1" as="geometry" />
        </mxCell>
        <mxCell id="8W7PXN7QodkAZlV8HIW6-6" value="&lt;font style=&quot;font-size: 19px&quot;&gt;ProtocolHandler&lt;/font&gt;" style="html=1;rounded=0;shadow=0;glass=0;sketch=1;fontSize=22;" vertex="1" parent="8W7PXN7QodkAZlV8HIW6-1">
          <mxGeometry x="100" y="420" width="150" height="50" as="geometry" />
        </mxCell>
        <mxCell id="8W7PXN7QodkAZlV8HIW6-29" style="edgeStyle=none;rounded=0;sketch=0;orthogonalLoop=1;jettySize=auto;html=1;exitX=0.5;exitY=0;exitDx=0;exitDy=0;entryX=0.5;entryY=1;entryDx=0;entryDy=0;fontSize=14;startArrow=none;startFill=0;endArrow=none;endFill=0;" edge="1" parent="8W7PXN7QodkAZlV8HIW6-1" source="8W7PXN7QodkAZlV8HIW6-7" target="8W7PXN7QodkAZlV8HIW6-9">
          <mxGeometry relative="1" as="geometry" />
        </mxCell>
        <mxCell id="8W7PXN7QodkAZlV8HIW6-7" value="&lt;font style=&quot;font-size: 19px&quot;&gt;Adapter&lt;/font&gt;" style="html=1;rounded=0;shadow=0;glass=0;sketch=1;fontSize=22;" vertex="1" parent="8W7PXN7QodkAZlV8HIW6-1">
          <mxGeometry x="330" y="420" width="120" height="50" as="geometry" />
        </mxCell>
        <mxCell id="8W7PXN7QodkAZlV8HIW6-31" style="edgeStyle=none;rounded=0;sketch=0;orthogonalLoop=1;jettySize=auto;html=1;exitX=0.5;exitY=0;exitDx=0;exitDy=0;entryX=0.5;entryY=1;entryDx=0;entryDy=0;fontSize=14;startArrow=none;startFill=0;endArrow=none;endFill=0;" edge="1" parent="8W7PXN7QodkAZlV8HIW6-1" source="8W7PXN7QodkAZlV8HIW6-8" target="8W7PXN7QodkAZlV8HIW6-6">
          <mxGeometry relative="1" as="geometry" />
        </mxCell>
        <mxCell id="8W7PXN7QodkAZlV8HIW6-8" value="&lt;font style=&quot;font-size: 19px&quot;&gt;EndPoint&lt;/font&gt;" style="html=1;rounded=0;shadow=0;glass=0;sketch=1;fontSize=22;" vertex="1" parent="8W7PXN7QodkAZlV8HIW6-1">
          <mxGeometry x="50" y="540" width="100" height="50" as="geometry" />
        </mxCell>
        <mxCell id="8W7PXN7QodkAZlV8HIW6-23" style="rounded=0;sketch=0;orthogonalLoop=1;jettySize=auto;html=1;exitX=0.5;exitY=0;exitDx=0;exitDy=0;entryX=0.5;entryY=1;entryDx=0;entryDy=0;fontSize=14;endArrow=none;endFill=0;" edge="1" parent="8W7PXN7QodkAZlV8HIW6-1" source="8W7PXN7QodkAZlV8HIW6-9" target="8W7PXN7QodkAZlV8HIW6-3">
          <mxGeometry relative="1" as="geometry" />
        </mxCell>
        <mxCell id="8W7PXN7QodkAZlV8HIW6-9" value="&lt;font style=&quot;font-size: 19px&quot;&gt;Connector&lt;/font&gt;" style="html=1;rounded=0;shadow=0;glass=0;sketch=1;fontSize=22;" vertex="1" parent="8W7PXN7QodkAZlV8HIW6-1">
          <mxGeometry x="220" y="320" width="150" height="50" as="geometry" />
        </mxCell>
        <mxCell id="8W7PXN7QodkAZlV8HIW6-32" style="edgeStyle=none;rounded=0;sketch=0;orthogonalLoop=1;jettySize=auto;html=1;exitX=0.5;exitY=0;exitDx=0;exitDy=0;fontSize=14;startArrow=none;startFill=0;endArrow=none;endFill=0;" edge="1" parent="8W7PXN7QodkAZlV8HIW6-1" source="8W7PXN7QodkAZlV8HIW6-10">
          <mxGeometry relative="1" as="geometry">
            <mxPoint x="170" y="470" as="targetPoint" />
          </mxGeometry>
        </mxCell>
        <mxCell id="8W7PXN7QodkAZlV8HIW6-10" value="&lt;font style=&quot;font-size: 19px&quot;&gt;Processor&lt;/font&gt;" style="html=1;rounded=0;shadow=0;glass=0;sketch=1;fontSize=22;" vertex="1" parent="8W7PXN7QodkAZlV8HIW6-1">
          <mxGeometry x="190" y="540" width="100" height="50" as="geometry" />
        </mxCell>
        <mxCell id="8W7PXN7QodkAZlV8HIW6-11" value="" style="rounded=0;whiteSpace=wrap;html=1;shadow=0;glass=0;sketch=1;fontSize=22;" vertex="1" parent="8W7PXN7QodkAZlV8HIW6-1">
          <mxGeometry x="610" y="300" width="470" height="380" as="geometry" />
        </mxCell>
        <mxCell id="8W7PXN7QodkAZlV8HIW6-25" style="edgeStyle=none;rounded=0;sketch=0;orthogonalLoop=1;jettySize=auto;html=1;entryX=0.5;entryY=1;entryDx=0;entryDy=0;fontSize=14;startArrow=none;startFill=0;endArrow=none;endFill=0;exitX=0.5;exitY=0;exitDx=0;exitDy=0;" edge="1" parent="8W7PXN7QodkAZlV8HIW6-1" source="8W7PXN7QodkAZlV8HIW6-12" target="8W7PXN7QodkAZlV8HIW6-3">
          <mxGeometry relative="1" as="geometry" />
        </mxCell>
        <mxCell id="8W7PXN7QodkAZlV8HIW6-41" style="edgeStyle=none;rounded=0;sketch=0;orthogonalLoop=1;jettySize=auto;html=1;exitX=1;exitY=0.5;exitDx=0;exitDy=0;entryX=0;entryY=0.5;entryDx=0;entryDy=0;fontSize=14;startArrow=none;startFill=0;endArrow=none;endFill=0;" edge="1" parent="8W7PXN7QodkAZlV8HIW6-1" source="8W7PXN7QodkAZlV8HIW6-12" target="8W7PXN7QodkAZlV8HIW6-17">
          <mxGeometry relative="1" as="geometry" />
        </mxCell>
        <mxCell id="8W7PXN7QodkAZlV8HIW6-12" value="&lt;font style=&quot;font-size: 19px&quot;&gt;Engine&lt;/font&gt;" style="html=1;rounded=0;shadow=0;glass=0;sketch=1;fontSize=22;" vertex="1" parent="8W7PXN7QodkAZlV8HIW6-1">
          <mxGeometry x="677" y="320" width="150" height="50" as="geometry" />
        </mxCell>
        <mxCell id="8W7PXN7QodkAZlV8HIW6-35" style="edgeStyle=none;rounded=0;sketch=0;orthogonalLoop=1;jettySize=auto;html=1;exitX=0.5;exitY=0;exitDx=0;exitDy=0;fontSize=14;startArrow=none;startFill=0;endArrow=none;endFill=0;" edge="1" parent="8W7PXN7QodkAZlV8HIW6-1" source="8W7PXN7QodkAZlV8HIW6-14" target="8W7PXN7QodkAZlV8HIW6-12">
          <mxGeometry relative="1" as="geometry" />
        </mxCell>
        <mxCell id="8W7PXN7QodkAZlV8HIW6-42" style="edgeStyle=none;rounded=0;sketch=0;orthogonalLoop=1;jettySize=auto;html=1;exitX=1;exitY=0.5;exitDx=0;exitDy=0;fontSize=14;startArrow=none;startFill=0;endArrow=none;endFill=0;" edge="1" parent="8W7PXN7QodkAZlV8HIW6-1" source="8W7PXN7QodkAZlV8HIW6-14">
          <mxGeometry relative="1" as="geometry">
            <mxPoint x="910" y="490" as="targetPoint" />
          </mxGeometry>
        </mxCell>
        <mxCell id="8W7PXN7QodkAZlV8HIW6-14" value="&lt;font style=&quot;font-size: 19px&quot;&gt;Host&lt;/font&gt;" style="html=1;rounded=0;shadow=0;glass=0;sketch=1;fontSize=22;" vertex="1" parent="8W7PXN7QodkAZlV8HIW6-1">
          <mxGeometry x="677" y="420" width="150" height="50" as="geometry" />
        </mxCell>
        <mxCell id="8W7PXN7QodkAZlV8HIW6-36" style="edgeStyle=none;rounded=0;sketch=0;orthogonalLoop=1;jettySize=auto;html=1;exitX=0.5;exitY=0;exitDx=0;exitDy=0;entryX=0.5;entryY=1;entryDx=0;entryDy=0;fontSize=14;startArrow=none;startFill=0;endArrow=none;endFill=0;" edge="1" parent="8W7PXN7QodkAZlV8HIW6-1" source="8W7PXN7QodkAZlV8HIW6-15" target="8W7PXN7QodkAZlV8HIW6-14">
          <mxGeometry relative="1" as="geometry" />
        </mxCell>
        <mxCell id="8W7PXN7QodkAZlV8HIW6-43" style="edgeStyle=none;rounded=0;sketch=0;orthogonalLoop=1;jettySize=auto;html=1;exitX=1;exitY=0.5;exitDx=0;exitDy=0;fontSize=14;startArrow=none;startFill=0;endArrow=none;endFill=0;" edge="1" parent="8W7PXN7QodkAZlV8HIW6-1" source="8W7PXN7QodkAZlV8HIW6-15">
          <mxGeometry relative="1" as="geometry">
            <mxPoint x="910" y="490" as="targetPoint" />
          </mxGeometry>
        </mxCell>
        <mxCell id="8W7PXN7QodkAZlV8HIW6-15" value="&lt;font style=&quot;font-size: 19px&quot;&gt;Context&lt;/font&gt;" style="html=1;rounded=0;shadow=0;glass=0;sketch=1;fontSize=22;" vertex="1" parent="8W7PXN7QodkAZlV8HIW6-1">
          <mxGeometry x="677" y="510" width="150" height="50" as="geometry" />
        </mxCell>
        <mxCell id="8W7PXN7QodkAZlV8HIW6-37" style="edgeStyle=none;rounded=0;sketch=0;orthogonalLoop=1;jettySize=auto;html=1;exitX=0.5;exitY=0;exitDx=0;exitDy=0;entryX=0.5;entryY=1;entryDx=0;entryDy=0;fontSize=14;startArrow=none;startFill=0;endArrow=none;endFill=0;" edge="1" parent="8W7PXN7QodkAZlV8HIW6-1" source="8W7PXN7QodkAZlV8HIW6-16" target="8W7PXN7QodkAZlV8HIW6-15">
          <mxGeometry relative="1" as="geometry" />
        </mxCell>
        <mxCell id="8W7PXN7QodkAZlV8HIW6-44" style="edgeStyle=none;rounded=0;sketch=0;orthogonalLoop=1;jettySize=auto;html=1;exitX=1;exitY=0.5;exitDx=0;exitDy=0;entryX=0;entryY=0.5;entryDx=0;entryDy=0;fontSize=14;startArrow=none;startFill=0;endArrow=none;endFill=0;" edge="1" parent="8W7PXN7QodkAZlV8HIW6-1" source="8W7PXN7QodkAZlV8HIW6-16" target="8W7PXN7QodkAZlV8HIW6-17">
          <mxGeometry relative="1" as="geometry" />
        </mxCell>
        <mxCell id="8W7PXN7QodkAZlV8HIW6-16" value="&lt;font style=&quot;font-size: 19px&quot;&gt;Wrapper&lt;/font&gt;" style="html=1;rounded=0;shadow=0;glass=0;sketch=1;fontSize=22;" vertex="1" parent="8W7PXN7QodkAZlV8HIW6-1">
          <mxGeometry x="677" y="600" width="150" height="50" as="geometry" />
        </mxCell>
        <mxCell id="8W7PXN7QodkAZlV8HIW6-45" style="edgeStyle=none;rounded=0;sketch=0;orthogonalLoop=1;jettySize=auto;html=1;exitX=0.5;exitY=1;exitDx=0;exitDy=0;fontSize=14;startArrow=none;startFill=0;endArrow=none;endFill=0;" edge="1" parent="8W7PXN7QodkAZlV8HIW6-1" source="8W7PXN7QodkAZlV8HIW6-17" target="8W7PXN7QodkAZlV8HIW6-18">
          <mxGeometry relative="1" as="geometry" />
        </mxCell>
        <mxCell id="8W7PXN7QodkAZlV8HIW6-17" value="&lt;font style=&quot;font-size: 19px&quot;&gt;Pipeline&lt;/font&gt;" style="html=1;rounded=0;shadow=0;glass=0;sketch=1;fontSize=22;" vertex="1" parent="8W7PXN7QodkAZlV8HIW6-1">
          <mxGeometry x="910" y="470" width="140" height="40" as="geometry" />
        </mxCell>
        <mxCell id="8W7PXN7QodkAZlV8HIW6-18" value="&lt;font style=&quot;font-size: 19px&quot;&gt;Value&lt;/font&gt;" style="html=1;rounded=0;shadow=0;glass=0;sketch=1;fontSize=22;" vertex="1" parent="8W7PXN7QodkAZlV8HIW6-1">
          <mxGeometry x="910" y="560" width="140" height="40" as="geometry" />
        </mxCell>
        <mxCell id="8W7PXN7QodkAZlV8HIW6-19" value="连接器" style="text;html=1;strokeColor=none;fillColor=none;align=center;verticalAlign=middle;whiteSpace=wrap;rounded=0;shadow=0;glass=0;sketch=1;fontSize=19;" vertex="1" parent="8W7PXN7QodkAZlV8HIW6-1">
          <mxGeometry x="50" y="300" width="60" height="30" as="geometry" />
        </mxCell>
        <mxCell id="8W7PXN7QodkAZlV8HIW6-20" value="容器" style="text;html=1;strokeColor=none;fillColor=none;align=center;verticalAlign=middle;whiteSpace=wrap;rounded=0;shadow=0;glass=0;sketch=1;fontSize=19;" vertex="1" parent="8W7PXN7QodkAZlV8HIW6-1">
          <mxGeometry x="990" y="300" width="60" height="30" as="geometry" />
        </mxCell>
        <mxCell id="8W7PXN7QodkAZlV8HIW6-22" value="&lt;font style=&quot;font-size: 14px&quot;&gt;包含&lt;/font&gt;" style="text;html=1;align=center;verticalAlign=middle;resizable=0;points=[];autosize=1;strokeColor=none;fillColor=none;fontSize=19;" vertex="1" parent="8W7PXN7QodkAZlV8HIW6-1">
          <mxGeometry x="570" y="140" width="50" height="30" as="geometry" />
        </mxCell>
        <mxCell id="8W7PXN7QodkAZlV8HIW6-24" value="&lt;font style=&quot;font-size: 14px&quot;&gt;包含&lt;/font&gt;" style="text;html=1;align=center;verticalAlign=middle;resizable=0;points=[];autosize=1;strokeColor=none;fillColor=none;fontSize=19;" vertex="1" parent="8W7PXN7QodkAZlV8HIW6-1">
          <mxGeometry x="410" y="240" width="50" height="30" as="geometry" />
        </mxCell>
        <mxCell id="8W7PXN7QodkAZlV8HIW6-26" value="&lt;font style=&quot;font-size: 14px&quot;&gt;包含&lt;/font&gt;" style="text;html=1;align=center;verticalAlign=middle;resizable=0;points=[];autosize=1;strokeColor=none;fillColor=none;fontSize=19;" vertex="1" parent="8W7PXN7QodkAZlV8HIW6-1">
          <mxGeometry x="660" y="240" width="50" height="30" as="geometry" />
        </mxCell>
        <mxCell id="8W7PXN7QodkAZlV8HIW6-28" value="&lt;font style=&quot;font-size: 14px&quot;&gt;包含&lt;/font&gt;" style="text;html=1;align=center;verticalAlign=middle;resizable=0;points=[];autosize=1;strokeColor=none;fillColor=none;fontSize=19;" vertex="1" parent="8W7PXN7QodkAZlV8HIW6-1">
          <mxGeometry x="160" y="380" width="50" height="30" as="geometry" />
        </mxCell>
        <mxCell id="8W7PXN7QodkAZlV8HIW6-30" value="&lt;font style=&quot;font-size: 14px&quot;&gt;包含&lt;/font&gt;" style="text;html=1;align=center;verticalAlign=middle;resizable=0;points=[];autosize=1;strokeColor=none;fillColor=none;fontSize=19;" vertex="1" parent="8W7PXN7QodkAZlV8HIW6-1">
          <mxGeometry x="330" y="370" width="50" height="30" as="geometry" />
        </mxCell>
        <mxCell id="8W7PXN7QodkAZlV8HIW6-33" value="&lt;font style=&quot;font-size: 14px&quot;&gt;包含&lt;/font&gt;" style="text;html=1;align=center;verticalAlign=middle;resizable=0;points=[];autosize=1;strokeColor=none;fillColor=none;fontSize=19;" vertex="1" parent="8W7PXN7QodkAZlV8HIW6-1">
          <mxGeometry x="100" y="480" width="50" height="30" as="geometry" />
        </mxCell>
        <mxCell id="8W7PXN7QodkAZlV8HIW6-34" value="&lt;font style=&quot;font-size: 14px&quot;&gt;包含&lt;/font&gt;" style="text;html=1;align=center;verticalAlign=middle;resizable=0;points=[];autosize=1;strokeColor=none;fillColor=none;fontSize=19;" vertex="1" parent="8W7PXN7QodkAZlV8HIW6-1">
          <mxGeometry x="190" y="480" width="50" height="30" as="geometry" />
        </mxCell>
        <mxCell id="8W7PXN7QodkAZlV8HIW6-38" value="&lt;font style=&quot;font-size: 14px&quot;&gt;包含&lt;/font&gt;" style="text;html=1;align=center;verticalAlign=middle;resizable=0;points=[];autosize=1;strokeColor=none;fillColor=none;fontSize=19;" vertex="1" parent="8W7PXN7QodkAZlV8HIW6-1">
          <mxGeometry x="750" y="380" width="50" height="30" as="geometry" />
        </mxCell>
        <mxCell id="8W7PXN7QodkAZlV8HIW6-39" value="&lt;font style=&quot;font-size: 14px&quot;&gt;包含&lt;/font&gt;" style="text;html=1;align=center;verticalAlign=middle;resizable=0;points=[];autosize=1;strokeColor=none;fillColor=none;fontSize=19;" vertex="1" parent="8W7PXN7QodkAZlV8HIW6-1">
          <mxGeometry x="750" y="470" width="50" height="30" as="geometry" />
        </mxCell>
        <mxCell id="8W7PXN7QodkAZlV8HIW6-40" value="&lt;font style=&quot;font-size: 14px&quot;&gt;包含&lt;/font&gt;" style="text;html=1;align=center;verticalAlign=middle;resizable=0;points=[];autosize=1;strokeColor=none;fillColor=none;fontSize=19;" vertex="1" parent="8W7PXN7QodkAZlV8HIW6-1">
          <mxGeometry x="750" y="560" width="50" height="30" as="geometry" />
        </mxCell>
        <mxCell id="8W7PXN7QodkAZlV8HIW6-46" value="&lt;font style=&quot;font-size: 14px&quot;&gt;包含&lt;/font&gt;" style="text;html=1;align=center;verticalAlign=middle;resizable=0;points=[];autosize=1;strokeColor=none;fillColor=none;fontSize=19;" vertex="1" parent="8W7PXN7QodkAZlV8HIW6-1">
          <mxGeometry x="860" y="380" width="50" height="30" as="geometry" />
        </mxCell>
        <mxCell id="8W7PXN7QodkAZlV8HIW6-48" value="&lt;font style=&quot;font-size: 14px&quot;&gt;包含&lt;/font&gt;" style="text;html=1;align=center;verticalAlign=middle;resizable=0;points=[];autosize=1;strokeColor=none;fillColor=none;fontSize=19;" vertex="1" parent="8W7PXN7QodkAZlV8HIW6-1">
          <mxGeometry x="830" y="420" width="50" height="30" as="geometry" />
        </mxCell>
        <mxCell id="8W7PXN7QodkAZlV8HIW6-49" value="&lt;font style=&quot;font-size: 14px&quot;&gt;包含&lt;/font&gt;" style="text;html=1;align=center;verticalAlign=middle;resizable=0;points=[];autosize=1;strokeColor=none;fillColor=none;fontSize=19;" vertex="1" parent="8W7PXN7QodkAZlV8HIW6-1">
          <mxGeometry x="830" y="480" width="50" height="30" as="geometry" />
        </mxCell>
        <mxCell id="8W7PXN7QodkAZlV8HIW6-50" value="&lt;font style=&quot;font-size: 14px&quot;&gt;包含&lt;/font&gt;" style="text;html=1;align=center;verticalAlign=middle;resizable=0;points=[];autosize=1;strokeColor=none;fillColor=none;fontSize=19;" vertex="1" parent="8W7PXN7QodkAZlV8HIW6-1">
          <mxGeometry x="850" y="565" width="50" height="30" as="geometry" />
        </mxCell>
        <mxCell id="8W7PXN7QodkAZlV8HIW6-51" value="&lt;font style=&quot;font-size: 14px&quot;&gt;包含&lt;/font&gt;" style="text;html=1;align=center;verticalAlign=middle;resizable=0;points=[];autosize=1;strokeColor=none;fillColor=none;fontSize=19;" vertex="1" parent="8W7PXN7QodkAZlV8HIW6-1">
          <mxGeometry x="980" y="520" width="50" height="30" as="geometry" />
        </mxCell>
      </root>
    </mxGraphModel>
  </diagram>
</mxfile>
